# xmcd
# 
# Track frame offsets:
#     150
#     12887
#     24822
#     36632
#     54322
#     68617
#     83729
#     98204
#     115359
#     132774
#     147592
#     160322
# 
# Disc length: 2449
# 
# Revision: 3
# Processed by: cddbd v1.5.2PL0 Copyright (c) Steve Scherf et al.
# Submitted via: fre:ac v1.0.31
# 
DISCID=9a098f0c
DTITLE=Nara Leão - Folha 50 Anos de Bossa Nova
DYEAR=2008
DGENRE=MPB
TTITLE0=Eu gosto mais do Rio
TTITLE1=Insensatez
TTITLE2=Corcovado
TTITLE3=Sabe você
TTITLE4=O barquinho
TTITLE5=Wave
TTITLE6=Águas de março
TTITLE7=Com açúcar, com afeto
TTITLE8=Chega de saudade
TTITLE9=O negócio é amar
TTITLE10=Tristeza de nós dois
TTITLE11=Descansa coração
EXTD=
EXTT0=
EXTT1=
EXTT2=
EXTT3=
EXTT4=
EXTT5=
EXTT6=
EXTT7=
EXTT8=
EXTT9=
EXTT10=
EXTT11=
PLAYORDER=
